<svg width="64" height="64" viewBox="0 0 64 64" fill="none" xmlns="http://www.w3.org/2000/svg">
  <defs>
    <linearGradient id="fav-paper" x1="10" y1="8" x2="52" y2="54" gradientUnits="userSpaceOnUse">
      <stop stop-color="#173B64"/>
      <stop offset="1" stop-color="#0B1F38"/>
    </linearGradient>
    <linearGradient id="fav-accent" x1="18" y1="20" x2="39" y2="41" gradientUnits="userSpaceOnUse">
      <stop stop-color="#FF9760"/>
      <stop offset="1" stop-color="#FF5D4F"/>
    </linearGradient>
  </defs>
  <rect width="64" height="64" rx="16" fill="#F6FAFF"/>
  <path d="M16 10C12.6863 10 10 12.6863 10 16V47C10 50.3137 12.6863 53 16 53H38.8C40.4589 53 42.0494 52.3234 43.1807 51.1265L51.3807 42.4472C52.4349 41.332 53.0214 39.8554 53.0214 38.3207V16C53.0214 12.6863 50.3351 10 47.0214 10H16Z" fill="url(#fav-paper)"/>
  <path d="M36 12V23C36 26.3137 38.6863 29 42 29H52" stroke="#93D0FF" stroke-width="3.2" stroke-linecap="round" stroke-linejoin="round"/>
  <rect x="18" y="25" width="14" height="3.8" rx="1.9" fill="#93D0FF"/>
  <rect x="18" y="34" width="18" height="3.8" rx="1.9" fill="#93D0FF" fill-opacity="0.78"/>
  <rect x="18" y="43" width="11" height="3.8" rx="1.9" fill="#93D0FF" fill-opacity="0.58"/>
  <path d="M28.5 48L23 42.5L25.7 39.8L28.4 42.5L35.7 35.2L38.7 38.2L28.5 48Z" fill="url(#fav-accent)"/>
</svg>